<?xml version="1.0"?>
<svg xmlns="http://www.w3.org/2000/svg" xmlns:xlink="http://www.w3.org/1999/xlink" xmlns:svgjs="http://svgjs.com/svgjs" version="1.1" width="512" height="512" x="0" y="0" viewBox="0 0 512 512" style="enable-background:new 0 0 512 512" xml:space="preserve" class=""><g>
<path xmlns="http://www.w3.org/2000/svg" style="" d="M438.154,44.308H73.846C33.127,44.308,0,77.435,0,118.154v275.692  c0,40.719,33.127,73.846,73.846,73.846h364.308c40.719,0,73.846-33.127,73.846-73.846V118.154  C512,77.435,478.873,44.308,438.154,44.308z" fill="#198ae6" data-original="#fd9822" class=""/>
<path xmlns="http://www.w3.org/2000/svg" style="" d="M438.154,44.308H256v423.385h182.154c40.719,0,73.846-33.127,73.846-73.846V118.154  C512,77.435,478.873,44.308,438.154,44.308z" fill="#146fb8" data-original="#e2780e" class=""/>
<path xmlns="http://www.w3.org/2000/svg" style="" d="M512,182.154H375.095c-40.656,0-74.39,32.464-74.784,73.118  c-0.398,41.052,32.881,74.575,73.843,74.575H512V182.154z" fill="#0f538a" data-original="#93480e" class=""/>
<path xmlns="http://www.w3.org/2000/svg" style="" d="M393.846,270.769h-19.692c-8.157,0-14.769-6.613-14.769-14.769s6.613-14.769,14.769-14.769h19.692  c8.157,0,14.769,6.613,14.769,14.769S402.003,270.769,393.846,270.769z" fill="#0a375c" data-original="#7c3200" class=""/>
<g xmlns="http://www.w3.org/2000/svg">
</g>
<g xmlns="http://www.w3.org/2000/svg">
</g>
<g xmlns="http://www.w3.org/2000/svg">
</g>
<g xmlns="http://www.w3.org/2000/svg">
</g>
<g xmlns="http://www.w3.org/2000/svg">
</g>
<g xmlns="http://www.w3.org/2000/svg">
</g>
<g xmlns="http://www.w3.org/2000/svg">
</g>
<g xmlns="http://www.w3.org/2000/svg">
</g>
<g xmlns="http://www.w3.org/2000/svg">
</g>
<g xmlns="http://www.w3.org/2000/svg">
</g>
<g xmlns="http://www.w3.org/2000/svg">
</g>
<g xmlns="http://www.w3.org/2000/svg">
</g>
<g xmlns="http://www.w3.org/2000/svg">
</g>
<g xmlns="http://www.w3.org/2000/svg">
</g>
<g xmlns="http://www.w3.org/2000/svg">
</g>
</g></svg>
